<svg id="Layer_1" data-name="Layer 1" xmlns="http://www.w3.org/2000/svg" viewBox="0 0 595.28 547.57"><defs><style>.cls-1{fill:#231f20;}</style></defs><polygon class="cls-1" points="311.27 324.1 243.41 324.1 190.11 233.99 243.35 142.27 348.63 298.25 384.59 234 340.85 156.86 288.42 156.86 278.41 142.27 348.35 142.27 400.91 233.17 348.41 324.1 244.19 169.61 207.29 234 250.91 309.51 301.82 309.51 311.27 324.1"/><polygon class="cls-1" points="355.63 267.62 297.75 183.17 333.74 184.19 325.17 171.36 288.89 170.34 269.45 142.17 254.11 142.27 347.99 281.36 355.63 267.62"/><polygon class="cls-1" points="236.03 198.66 293.92 283.1 257.93 282.09 266.5 294.92 302.78 295.93 322.22 324.1 337.56 324 243.67 184.92 236.03 198.66"/><path class="cls-1" d="M200.33,354.43h-7.84v-4.31h21.07v4.31h-7.82v18h-5.41Z"/><path class="cls-1" d="M222.4,363.82v8.58h-5.35V350.12h12.13c5.14,0,8.08,2.54,8.08,6.37a5.23,5.23,0,0,1-3.88,5.27c.91.36,3.3,1.23,3.3,5.23v1.12a18,18,0,0,0,.28,4.29h-5.55a14.31,14.31,0,0,1-.41-4.66V367c0-2.25-.83-3.19-4.08-3.19Zm0-4.06H228c2.62,0,3.76-.94,3.76-2.82s-1.16-2.76-3.71-2.76H222.4Z"/><path class="cls-1" d="M247.18,367.35l-2,5h-5.56l9-22.28h6.94L265,372.4h-5.85l-2.07-5Zm8.4-4.34c-2.07-5.1-3.08-7.71-3.62-9.41h0c-.5,1.67-1.68,5.06-3.35,9.41Z"/><path class="cls-1" d="M267.92,372.4V350.12h6.41c6.25,9.56,8.75,13,10.15,15.68h.06c-.22-2.34-.18-6.51-.18-10.17v-5.51h4.95V372.4h-6c-2.1-3.32-9.23-14.39-10.56-16.93h-.06c.19,2.75.19,5.91.19,9.87v7.06Z"/><path class="cls-1" d="M304,372.4V350.12h6.4c6.26,9.56,8.76,13,10.16,15.68h.06c-.22-2.34-.19-6.51-.19-10.17v-5.51h5V372.4h-6c-2.1-3.32-9.23-14.39-10.56-16.93h-.06c.18,2.75.18,5.91.18,9.87v7.06Z"/><path class="cls-1" d="M331.23,350.12h5.41v8.38h10.25v-8.38h5.41V372.4h-5.41v-9.6H336.64v9.6h-5.41Z"/><path class="cls-1" d="M363.29,350.12v12.6c0,4.74,2.49,5.93,5.22,5.93,2.92,0,4.87-1.25,4.87-5.93v-12.6h5.4V362.9c0,6.76-3.8,10-10.42,10-6.4,0-10.48-2.95-10.48-9.86v-12.9Z"/><path class="cls-1" d="M390,354.43h-7.84v-4.31h21.06v4.31h-7.81v18H390Z"/><path class="cls-1" d="M195.26,393.64l-2.32-8.4h.7c.57,2.06,1.82,6.64,2,7.62h0c.16-.79,1.53-5.4,2.11-7.62h.74c.55,2,1.89,6.94,2,7.61h0c.26-1.2,1.65-5.62,2.22-7.61h.69l-2.57,8.4h-.77c-.55-2-1.84-6.79-2-7.53h0c-.22,1.1-1.5,5.45-2.1,7.53Z"/><path class="cls-1" d="M220.72,389.52h-4.28V393h4.69l-.1.62h-5.26v-8.4h5.17v.62h-4.5v3.05h4.28Z"/><path class="cls-1" d="M233.58,385.24h2.95c1.62,0,2.48.86,2.48,2.07a1.81,1.81,0,0,1-1.29,1.83,2.13,2.13,0,0,1,1.59,2.08c0,1.67-1.26,2.42-2.73,2.42h-3Zm2.73,3.61c1.44,0,2-.54,2-1.5s-.57-1.49-1.74-1.49h-2.32v3ZM234.24,393h2.35c1.1,0,2-.55,2-1.78,0-1.06-.68-1.79-2.36-1.79h-2Z"/><path class="cls-1" d="M252,385.24h2.8a3.79,3.79,0,0,1,3.9,4.13c0,2.51-1.56,4.27-3.91,4.27H252Zm.68,7.78h2c2.21,0,3.29-1.55,3.29-3.62,0-1.83-1-3.54-3.29-3.54h-2Z"/><path class="cls-1" d="M276.33,389.52H272V393h4.69l-.1.62h-5.26v-8.4h5.17v.62H272v3.05h4.29Z"/><path class="cls-1" d="M291.62,393.64l-3.12-8.4h.73l1.62,4.38c.47,1.27,1,2.67,1.17,3.38h0c.18-.63.76-2.09,1.22-3.33l1.69-4.43h.71l-3.24,8.4Z"/><path class="cls-1" d="M312.83,389.52h-4.28V393h4.69l-.1.62h-5.26v-8.4H313v.62h-4.49v3.05h4.28Z"/><path class="cls-1" d="M325.69,385.24h.68V393h4.5l-.12.62h-5.06Z"/><path class="cls-1" d="M349.79,389.38c0,2.3-1.23,4.38-3.83,4.38-2.37,0-3.75-1.91-3.75-4.32s1.34-4.32,3.84-4.32C348.36,385.12,349.79,386.93,349.79,389.38Zm-6.86,0c0,1.92,1.07,3.73,3.07,3.73,2.16,0,3.07-1.76,3.07-3.75s-1-3.65-3.05-3.65S342.93,387.51,342.93,389.41Z"/><path class="cls-1" d="M362.43,385.24h3a2.31,2.31,0,0,1,2.6,2.35c0,1.52-1.05,2.4-2.69,2.4h-2.24v3.65h-.68Zm.68,4.14h2.3c1.34,0,1.91-.72,1.91-1.77a1.67,1.67,0,0,0-1.86-1.75h-2.35Z"/><path class="cls-1" d="M385.49,389.52h-4.28V393h4.69l-.1.62h-5.26v-8.4h5.17v.62h-4.5v3.05h4.28Z"/><path class="cls-1" d="M399,389.73v3.91h-.68v-8.4h3c1.66,0,2.54.89,2.54,2.21a1.9,1.9,0,0,1-1.56,2c.85.2,1.43.77,1.43,2.2v.32a5.43,5.43,0,0,0,.11,1.7h-.68a5.43,5.43,0,0,1-.13-1.75v-.22c0-1.37-.4-1.94-2-1.94Zm0-.62h2c1.46,0,2.14-.55,2.14-1.64s-.66-1.61-2-1.61H399Z"/></svg>