<svg id="Layer_1" data-name="Layer 1" xmlns="http://www.w3.org/2000/svg" xmlns:xlink="http://www.w3.org/1999/xlink" viewBox="0 0 220.7 205.05"><defs><style>.cls-1{fill:url(#Безымянный_градиент_3);}.cls-2{fill:url(#Безымянный_градиент_3-2);}.cls-3{fill:url(#Безымянный_градиент_3-3);}</style><linearGradient id="Безымянный_градиент_3" x1="32.72" y1="-9.04" x2="148.54" y2="150.62" gradientUnits="userSpaceOnUse"><stop offset="0" stop-color="#3a5fac"/><stop offset="1" stop-color="#ee3a89"/></linearGradient><linearGradient id="Безымянный_градиент_3-2" x1="62.62" y1="-30.73" x2="178.45" y2="128.92" xlink:href="#Безымянный_градиент_3"/><linearGradient id="Безымянный_градиент_3-3" x1="2.79" y1="12.68" x2="118.61" y2="172.33" xlink:href="#Безымянный_градиент_3"/></defs><polygon class="cls-1" points="128.75 193.04 60.9 193.04 7.59 102.94 60.83 11.21 166.11 167.19 202.07 102.94 158.33 25.8 105.9 25.8 95.89 11.21 165.83 11.21 218.39 102.11 165.89 193.04 61.68 38.55 24.77 102.94 68.39 178.45 119.3 178.45 128.75 193.04"/><polygon class="cls-2" points="173.11 136.56 115.23 52.12 151.22 53.13 142.65 40.3 106.37 39.28 86.93 11.12 71.59 11.21 165.47 150.3 173.11 136.56"/><polygon class="cls-3" points="53.51 67.6 111.4 152.04 75.41 151.03 83.98 163.86 120.26 164.87 139.7 193.04 155.04 192.94 61.15 53.86 53.51 67.6"/></svg>