<svg id="Layer_1" data-name="Layer 1" xmlns="http://www.w3.org/2000/svg" viewBox="0 0 223.04 57.13"><defs><style>.cls-1{fill:#fff;}</style></defs><path class="cls-1" d="M14.26,11.22H6.41V6.92H27.48v4.3H19.67v18H14.26Z"/><path class="cls-1" d="M36.32,20.61V29.2H31V6.92H43.1c5.14,0,8.08,2.53,8.08,6.36a5.21,5.21,0,0,1-3.88,5.27c.92.36,3.31,1.24,3.31,5.24V24.9a18.16,18.16,0,0,0,.28,4.3H45.34a14.31,14.31,0,0,1-.42-4.67V23.8c0-2.25-.82-3.19-4.07-3.19Zm0-4.05h5.57c2.63,0,3.76-.95,3.76-2.83S44.49,11,41.94,11H36.32Z"/><path class="cls-1" d="M61.1,24.14,59.16,29.2H53.59l9-22.28H69.5L78.93,29.2H73.09L71,24.14Zm8.4-4.33c-2.07-5.11-3.08-7.71-3.61-9.41h0c-.5,1.66-1.69,5-3.36,9.41Z"/><path class="cls-1" d="M81.85,29.2V6.92h6.4C94.51,16.47,97,20,98.4,22.59h.07c-.22-2.34-.19-6.5-.19-10.17V6.92h5V29.2h-6C95.13,25.88,88,14.8,86.68,12.26h-.06c.18,2.75.18,5.92.18,9.87V29.2Z"/><path class="cls-1" d="M117.91,29.2V6.92h6.41c6.26,9.55,8.75,13,10.15,15.67h.06c-.21-2.34-.18-6.5-.18-10.17V6.92h5V29.2h-6c-2.1-3.32-9.23-14.4-10.55-16.94h-.07c.19,2.75.19,5.92.19,9.87V29.2Z"/><path class="cls-1" d="M145.15,6.92h5.41v8.37h10.26V6.92h5.4V29.2h-5.4V19.6H150.56v9.6h-5.41Z"/><path class="cls-1" d="M177.22,6.92V19.51c0,4.74,2.48,5.94,5.22,5.94,2.91,0,4.86-1.26,4.86-5.94V6.92h5.41V19.69c0,6.76-3.8,10-10.42,10-6.41,0-10.48-3-10.48-9.86V6.92Z"/><path class="cls-1" d="M203.92,11.22h-7.84V6.92h21.07v4.3h-7.82v18h-5.41Z"/><path class="cls-1" d="M9.19,50.44,6.86,42h.7c.57,2.06,1.82,6.64,2,7.63h0c.15-.8,1.52-5.41,2.11-7.63h.74c.55,2,1.88,6.94,2,7.61h0c.26-1.2,1.66-5.62,2.23-7.61h.68l-2.56,8.41h-.77c-.55-2-1.85-6.8-2-7.53h0c-.21,1.1-1.5,5.45-2.1,7.53Z"/><path class="cls-1" d="M34.65,46.32H30.36v3.5h4.69l-.1.62H29.69V42h5.17v.62h-4.5V45.7h4.29Z"/><path class="cls-1" d="M47.51,42h2.94c1.62,0,2.48.86,2.48,2.07a1.83,1.83,0,0,1-1.29,1.84A2.11,2.11,0,0,1,53.23,48c0,1.68-1.26,2.43-2.73,2.43h-3Zm2.73,3.61c1.44,0,2-.54,2-1.5s-.57-1.49-1.74-1.49H48.17v3Zm-2.07,4.18h2.35a1.77,1.77,0,0,0,2-1.78c0-1.06-.68-1.78-2.35-1.78h-2Z"/><path class="cls-1" d="M66,42h2.79a3.8,3.8,0,0,1,3.91,4.13c0,2.51-1.56,4.28-3.92,4.28H66Zm.67,7.79h2c2.21,0,3.3-1.56,3.3-3.62,0-1.84-1-3.55-3.3-3.55h-2Z"/><path class="cls-1" d="M90.25,46.32H86v3.5h4.69l-.1.62H85.3V42h5.16v.62H86V45.7h4.28Z"/><path class="cls-1" d="M105.55,50.44,102.43,42h.72l1.63,4.39c.46,1.27,1,2.66,1.17,3.37h0c.18-.62.75-2.09,1.22-3.33L108.87,42h.71l-3.24,8.41Z"/><path class="cls-1" d="M126.75,46.32h-4.28v3.5h4.69l-.1.62H121.8V42H127v.62h-4.5V45.7h4.28Z"/><path class="cls-1" d="M139.62,42h.67v7.79h4.51l-.12.62h-5.06Z"/><path class="cls-1" d="M163.71,46.18c0,2.29-1.23,4.38-3.82,4.38-2.37,0-3.75-1.91-3.75-4.33s1.33-4.32,3.83-4.32C162.28,41.91,163.71,43.72,163.71,46.18Zm-6.85,0c0,1.93,1.06,3.74,3.07,3.74S163,48.17,163,46.19s-1-3.66-3-3.66S156.86,44.31,156.86,46.2Z"/><path class="cls-1" d="M176.35,42h3a2.31,2.31,0,0,1,2.6,2.35,2.36,2.36,0,0,1-2.68,2.41H177v3.65h-.69Zm.69,4.14h2.29c1.35,0,1.91-.71,1.91-1.77a1.67,1.67,0,0,0-1.86-1.75H177Z"/><path class="cls-1" d="M199.42,46.32h-4.28v3.5h4.69l-.1.62h-5.26V42h5.16v.62h-4.49V45.7h4.28Z"/><path class="cls-1" d="M213,46.52v3.92h-.68V42h3c1.66,0,2.54.89,2.54,2.21a1.9,1.9,0,0,1-1.57,2c.86.21,1.43.77,1.43,2.2v.32a5.84,5.84,0,0,0,.11,1.71h-.68a5.55,5.55,0,0,1-.12-1.76v-.21c0-1.37-.41-1.95-2-1.95Zm0-.62h2c1.47,0,2.15-.54,2.15-1.64s-.67-1.61-2-1.61H213Z"/></svg>