<svg id="Layer_1" data-name="Layer 1" xmlns="http://www.w3.org/2000/svg" viewBox="0 0 215.22 186.68"><defs><style>.cls-1{fill:#fff;}</style></defs><polygon class="cls-1" points="123.76 184.74 55.91 184.74 2.6 94.64 55.84 2.91 161.12 158.9 197.08 94.65 153.34 17.5 100.91 17.5 90.9 2.91 160.84 2.91 213.4 93.81 160.9 184.74 56.69 30.25 19.79 94.65 63.4 170.15 114.31 170.15 123.76 184.74"/><polygon class="cls-1" points="168.12 128.26 110.24 43.82 146.23 44.83 137.66 32.01 101.38 30.98 81.94 2.82 66.6 2.91 160.48 142 168.12 128.26"/><polygon class="cls-1" points="48.52 59.31 106.41 143.75 70.42 142.74 78.99 155.56 115.27 156.58 134.71 184.74 150.06 184.64 56.16 45.56 48.52 59.31"/></svg>